<svg width="100" height="100" viewBox="0 0 100 100" fill="none" xmlns="http://www.w3.org/2000/svg">
<rect width="100" height="100" rx="26" fill="#2196F3"/>
<path d="M26.052 61.48L26.016 41.932C26.208 39.94 27.06 38.896 28.572 38.8C29.652 38.776 36.84 38.764 50.136 38.764C51.576 38.764 52.296 39.832 52.296 41.968C52.296 43.048 51.66 43.588 50.388 43.588H42.54C42.036 43.588 41.628 43.756 41.316 44.092C41.028 44.428 40.884 44.872 40.884 45.424V47.98C40.884 48.724 41.196 49.096 41.82 49.096H47.796C48.372 49.096 48.804 49.228 49.092 49.492C49.38 49.756 49.524 50.368 49.524 51.328C49.524 52.264 49.38 52.864 49.092 53.128C48.828 53.392 48.384 53.524 47.76 53.524H42.396C41.796 53.524 41.376 53.668 41.136 53.956C40.92 54.244 40.812 54.7 40.812 55.324V61.516C40.812 62.356 40.632 62.98 40.272 63.388C39.912 63.796 39.444 64 38.868 64H28.644C27.972 64 27.396 63.784 26.916 63.352C26.436 62.896 26.148 62.272 26.052 61.48ZM63.3652 59.284C63.3652 58.612 63.0772 58.084 62.5012 57.7C61.9492 57.316 61.2652 57.028 60.4492 56.836C59.6572 56.62 58.8532 56.38 58.0372 56.116C57.2212 55.828 56.5252 55.348 55.9492 54.676C55.3972 53.98 55.1212 53.068 55.1212 51.94C55.1212 47.476 58.5892 45.244 65.5252 45.244C68.5012 45.244 70.8892 45.748 72.6892 46.756C73.2652 47.068 73.6732 47.368 73.9132 47.656C74.1532 47.92 74.2732 48.4 74.2732 49.096C74.2732 49.792 74.1292 50.32 73.8412 50.68C73.5772 51.016 73.3012 51.184 73.0132 51.184C72.7492 51.184 72.1492 50.92 71.2132 50.392C70.3012 49.84 69.3532 49.552 68.3692 49.528C67.5772 49.528 67.1812 49.924 67.1812 50.716C67.1812 51.244 67.4572 51.664 68.0092 51.976C68.5612 52.288 69.2332 52.564 70.0252 52.804C70.8172 53.02 71.6092 53.296 72.4012 53.632C73.1932 53.944 73.8652 54.484 74.4172 55.252C74.9692 55.996 75.2452 56.944 75.2452 58.096C75.2452 62.56 71.7772 64.792 64.8412 64.792C61.4572 64.792 58.6972 64.3 56.5612 63.316C55.9132 63.052 55.4452 62.788 55.1572 62.524C54.8692 62.236 54.7252 61.732 54.7252 61.012C54.7252 60.268 54.8692 59.74 55.1572 59.428C55.4692 59.116 55.7212 58.96 55.9132 58.96C56.1292 58.96 56.8252 59.224 58.0012 59.752C59.1772 60.28 60.3652 60.544 61.5652 60.544C62.7652 60.544 63.3652 60.124 63.3652 59.284Z" fill="white"/>
</svg>
