<svg width="213" height="45" viewBox="0 0 213 45" fill="none" xmlns="http://www.w3.org/2000/svg">
<path d="M60.5704 15.18L62.2504 13.404V20.856L61.0984 19.92H68.3344V22.8H61.0984L62.2504 21.792V30H58.5304V12.3H69.4024V15.18H60.5704ZM75.8158 30.24C74.9118 30.24 74.1678 30.096 73.5838 29.808C72.9998 29.512 72.5398 29.116 72.2038 28.62C71.8678 28.124 71.6318 27.572 71.4958 26.964C71.3598 26.356 71.2918 25.74 71.2918 25.116C71.2918 24.828 71.2918 24.524 71.2918 24.204C71.2918 23.884 71.2918 23.556 71.2918 23.22V17.256H75.0118V22.632C75.0118 22.904 75.0118 23.168 75.0118 23.424C75.0118 23.68 75.0118 23.916 75.0118 24.132C75.0118 24.668 75.0718 25.16 75.1918 25.608C75.3118 26.056 75.5318 26.416 75.8518 26.688C76.1798 26.96 76.6438 27.096 77.2438 27.096C77.8278 27.096 78.3238 26.932 78.7318 26.604C79.1398 26.268 79.4518 25.84 79.6678 25.32C79.8838 24.8 79.9918 24.264 79.9918 23.712L81.0358 24.564C81.0358 25.364 80.9118 26.108 80.6638 26.796C80.4238 27.484 80.0798 28.088 79.6318 28.608C79.1838 29.12 78.6358 29.52 77.9878 29.808C77.3478 30.096 76.6238 30.24 75.8158 30.24ZM79.9918 30V17.256H83.7118V30H79.9918ZM95.4788 30V24.588C95.4788 24.284 95.4788 24.008 95.4788 23.76C95.4788 23.512 95.4788 23.288 95.4788 23.088C95.4788 22.56 95.4108 22.08 95.2748 21.648C95.1388 21.208 94.8948 20.856 94.5428 20.592C94.1908 20.328 93.6828 20.196 93.0188 20.196C92.4428 20.196 91.9428 20.328 91.5188 20.592C91.1028 20.856 90.7828 21.224 90.5588 21.696C90.3348 22.168 90.2228 22.712 90.2228 23.328L89.1908 22.584C89.1908 21.48 89.4308 20.512 89.9108 19.68C90.3908 18.848 91.0388 18.196 91.8548 17.724C92.6788 17.252 93.5908 17.016 94.5908 17.016C95.6388 17.016 96.4988 17.228 97.1708 17.652C97.8508 18.068 98.3548 18.652 98.6828 19.404C99.0188 20.148 99.1868 21.02 99.1868 22.02C99.1868 22.428 99.1868 22.884 99.1868 23.388C99.1868 23.892 99.1868 24.408 99.1868 24.936V30H95.4788ZM86.5028 30V17.256H90.2228V30H86.5028ZM107.3 30.288C106.236 30.288 105.256 30.036 104.36 29.532C103.464 29.02 102.744 28.264 102.2 27.264C101.656 26.264 101.384 25.032 101.384 23.568C101.384 22.168 101.66 20.98 102.212 20.004C102.772 19.028 103.5 18.288 104.396 17.784C105.3 17.272 106.268 17.016 107.3 17.016C108.308 17.016 109.228 17.272 110.06 17.784C110.9 18.296 111.572 18.996 112.076 19.884C112.58 20.764 112.832 21.78 112.832 22.932C112.832 22.972 112.832 23.012 112.832 23.052C112.832 23.084 112.832 23.12 112.832 23.16L111.224 23.184C111.224 23.16 111.224 23.136 111.224 23.112C111.224 23.08 111.224 23.052 111.224 23.028C111.224 22.428 111.08 21.912 110.792 21.48C110.504 21.048 110.132 20.716 109.676 20.484C109.22 20.244 108.744 20.124 108.248 20.124C107.424 20.124 106.712 20.4 106.112 20.952C105.512 21.496 105.212 22.368 105.212 23.568C105.212 24.768 105.512 25.652 106.112 26.22C106.72 26.78 107.432 27.06 108.248 27.06C108.76 27.06 109.244 26.94 109.7 26.7C110.156 26.452 110.524 26.104 110.804 25.656C111.084 25.208 111.224 24.68 111.224 24.072L112.832 24.156C112.832 25.3 112.584 26.336 112.088 27.264C111.6 28.184 110.936 28.92 110.096 29.472C109.264 30.016 108.332 30.288 107.3 30.288ZM111.224 30V11.244H114.956V30H111.224ZM123.096 30.288C122.336 30.288 121.604 30.2 120.9 30.024C120.196 29.848 119.564 29.588 119.004 29.244C118.452 28.9 118.012 28.472 117.684 27.96C117.364 27.44 117.204 26.836 117.204 26.148C117.204 26.116 117.204 26.08 117.204 26.04C117.204 25.992 117.204 25.956 117.204 25.932H120.9C120.9 25.956 120.9 25.984 120.9 26.016C120.9 26.04 120.9 26.068 120.9 26.1C120.9 26.564 121.104 26.904 121.512 27.12C121.928 27.336 122.488 27.444 123.192 27.444C123.56 27.444 123.912 27.408 124.248 27.336C124.592 27.256 124.872 27.132 125.088 26.964C125.312 26.788 125.424 26.568 125.424 26.304C125.424 25.88 125.188 25.58 124.716 25.404C124.252 25.228 123.504 25.052 122.472 24.876C121.888 24.78 121.296 24.644 120.696 24.468C120.096 24.292 119.544 24.06 119.04 23.772C118.536 23.476 118.132 23.104 117.828 22.656C117.524 22.2 117.372 21.648 117.372 21C117.372 20.136 117.632 19.408 118.152 18.816C118.68 18.224 119.38 17.776 120.252 17.472C121.124 17.168 122.084 17.016 123.132 17.016C124.132 17.016 125.064 17.184 125.928 17.52C126.792 17.848 127.492 18.324 128.028 18.948C128.564 19.564 128.832 20.308 128.832 21.18C128.832 21.196 128.832 21.22 128.832 21.252C128.832 21.284 128.832 21.316 128.832 21.348H125.172C125.172 21.316 125.172 21.288 125.172 21.264C125.172 21.24 125.172 21.22 125.172 21.204C125.172 20.884 125.068 20.624 124.86 20.424C124.66 20.224 124.404 20.076 124.092 19.98C123.78 19.876 123.456 19.824 123.12 19.824C122.816 19.824 122.5 19.86 122.172 19.932C121.852 19.996 121.58 20.108 121.356 20.268C121.132 20.42 121.02 20.636 121.02 20.916C121.02 21.188 121.14 21.412 121.38 21.588C121.62 21.756 121.956 21.896 122.388 22.008C122.82 22.112 123.32 22.212 123.888 22.308C124.424 22.396 124.988 22.52 125.58 22.68C126.18 22.832 126.74 23.052 127.26 23.34C127.788 23.62 128.212 23.992 128.532 24.456C128.86 24.912 129.024 25.492 129.024 26.196C129.024 26.924 128.856 27.548 128.52 28.068C128.184 28.588 127.728 29.012 127.152 29.34C126.584 29.66 125.948 29.896 125.244 30.048C124.548 30.208 123.832 30.288 123.096 30.288ZM137.509 30.264C137.021 30.264 136.517 30.22 135.997 30.132C135.485 30.052 135.005 29.888 134.557 29.64C134.117 29.384 133.761 29.012 133.489 28.524C133.217 28.036 133.081 27.392 133.081 26.592C133.081 26.416 133.081 26.236 133.081 26.052C133.081 25.868 133.081 25.684 133.081 25.5V20.136H130.141V17.256H130.969C131.449 17.256 131.829 17.236 132.109 17.196C132.397 17.156 132.609 17.056 132.745 16.896C132.889 16.728 132.981 16.468 133.021 16.116C133.061 15.764 133.081 15.28 133.081 14.664V13.056H136.813V17.256H140.521V20.136H136.813V24.72C136.813 24.864 136.813 25.004 136.813 25.14C136.813 25.276 136.813 25.408 136.813 25.536C136.813 26.088 136.877 26.536 137.005 26.88C137.141 27.224 137.473 27.396 138.001 27.396C138.265 27.396 138.513 27.372 138.745 27.324C138.985 27.276 139.165 27.228 139.285 27.18V29.976C139.117 30.048 138.881 30.112 138.577 30.168C138.273 30.232 137.917 30.264 137.509 30.264ZM146.792 30.264C145.864 30.264 145.036 30.116 144.308 29.82C143.588 29.524 143.024 29.096 142.616 28.536C142.208 27.976 142.004 27.296 142.004 26.496C142.004 25.592 142.252 24.856 142.748 24.288C143.244 23.72 143.9 23.288 144.716 22.992C145.54 22.688 146.432 22.488 147.392 22.392C148.792 22.256 149.756 22.132 150.284 22.02C150.82 21.908 151.088 21.712 151.088 21.432C151.088 21.424 151.088 21.416 151.088 21.408C151.088 20.936 150.86 20.564 150.404 20.292C149.956 20.02 149.328 19.884 148.52 19.884C147.664 19.884 147.008 20.04 146.552 20.352C146.104 20.656 145.88 21.124 145.88 21.756H142.22C142.22 20.732 142.496 19.868 143.048 19.164C143.608 18.46 144.364 17.928 145.316 17.568C146.268 17.2 147.344 17.016 148.544 17.016C149.664 17.016 150.7 17.188 151.652 17.532C152.604 17.868 153.368 18.376 153.944 19.056C154.528 19.736 154.82 20.6 154.82 21.648C154.82 21.816 154.82 21.984 154.82 22.152C154.82 22.312 154.82 22.476 154.82 22.644V27.156C154.82 27.484 154.828 27.8 154.844 28.104C154.868 28.4 154.916 28.672 154.988 28.92C155.068 29.2 155.168 29.432 155.288 29.616C155.408 29.8 155.508 29.928 155.588 30H151.928C151.872 29.944 151.784 29.828 151.664 29.652C151.552 29.476 151.456 29.272 151.376 29.04C151.28 28.76 151.208 28.48 151.16 28.2C151.12 27.912 151.1 27.576 151.1 27.192L151.868 27.72C151.644 28.248 151.28 28.704 150.776 29.088C150.28 29.464 149.688 29.756 149 29.964C148.32 30.164 147.584 30.264 146.792 30.264ZM147.788 27.48C148.372 27.48 148.916 27.376 149.42 27.168C149.932 26.952 150.348 26.616 150.668 26.16C150.988 25.704 151.148 25.108 151.148 24.372V23.088L152.072 23.988C151.544 24.18 150.932 24.34 150.236 24.468C149.548 24.588 148.86 24.684 148.172 24.756C147.356 24.836 146.744 24.976 146.336 25.176C145.936 25.368 145.736 25.696 145.736 26.16C145.736 26.6 145.908 26.932 146.252 27.156C146.596 27.372 147.108 27.48 147.788 27.48ZM163.525 30.264C163.037 30.264 162.533 30.22 162.013 30.132C161.501 30.052 161.021 29.888 160.573 29.64C160.133 29.384 159.777 29.012 159.505 28.524C159.233 28.036 159.097 27.392 159.097 26.592C159.097 26.416 159.097 26.236 159.097 26.052C159.097 25.868 159.097 25.684 159.097 25.5V20.136H156.157V17.256H156.985C157.465 17.256 157.845 17.236 158.125 17.196C158.413 17.156 158.625 17.056 158.761 16.896C158.905 16.728 158.997 16.468 159.037 16.116C159.077 15.764 159.097 15.28 159.097 14.664V13.056H162.829V17.256H166.537V20.136H162.829V24.72C162.829 24.864 162.829 25.004 162.829 25.14C162.829 25.276 162.829 25.408 162.829 25.536C162.829 26.088 162.893 26.536 163.021 26.88C163.157 27.224 163.489 27.396 164.017 27.396C164.281 27.396 164.529 27.372 164.761 27.324C165.001 27.276 165.181 27.228 165.301 27.18V29.976C165.133 30.048 164.897 30.112 164.593 30.168C164.289 30.232 163.933 30.264 163.525 30.264ZM168.648 30V17.256H172.332V30H168.648ZM170.484 15.18C169.908 15.18 169.404 15.028 168.972 14.724C168.548 14.42 168.336 13.992 168.336 13.44C168.336 12.88 168.548 12.448 168.972 12.144C169.404 11.84 169.908 11.688 170.484 11.688C171.068 11.688 171.572 11.84 171.996 12.144C172.428 12.448 172.644 12.88 172.644 13.44C172.644 14 172.428 14.432 171.996 14.736C171.572 15.032 171.068 15.18 170.484 15.18ZM181.457 30.276C180.081 30.276 178.869 29.992 177.821 29.424C176.773 28.856 175.953 28.076 175.361 27.084C174.777 26.084 174.485 24.932 174.485 23.628C174.485 22.332 174.777 21.188 175.361 20.196C175.953 19.196 176.773 18.42 177.821 17.868C178.869 17.308 180.081 17.028 181.457 17.028C182.833 17.028 184.045 17.308 185.093 17.868C186.141 18.42 186.957 19.196 187.541 20.196C188.133 21.188 188.429 22.332 188.429 23.628C188.429 24.932 188.133 26.084 187.541 27.084C186.957 28.076 186.141 28.856 185.093 29.424C184.045 29.992 182.833 30.276 181.457 30.276ZM181.457 27.324C182.105 27.324 182.669 27.172 183.149 26.868C183.629 26.564 184.001 26.136 184.265 25.584C184.529 25.024 184.661 24.372 184.661 23.628C184.661 22.884 184.529 22.24 184.265 21.696C184.001 21.144 183.629 20.72 183.149 20.424C182.669 20.128 182.105 19.98 181.457 19.98C180.817 19.98 180.253 20.128 179.765 20.424C179.285 20.72 178.913 21.144 178.649 21.696C178.385 22.24 178.253 22.884 178.253 23.628C178.253 24.372 178.385 25.024 178.649 25.584C178.913 26.136 179.285 26.564 179.765 26.868C180.253 27.172 180.817 27.324 181.457 27.324ZM199.729 30V24.588C199.729 24.284 199.729 24.008 199.729 23.76C199.729 23.512 199.729 23.288 199.729 23.088C199.729 22.56 199.661 22.08 199.525 21.648C199.389 21.208 199.145 20.856 198.793 20.592C198.441 20.328 197.933 20.196 197.269 20.196C196.693 20.196 196.193 20.328 195.769 20.592C195.353 20.856 195.033 21.224 194.809 21.696C194.585 22.168 194.473 22.712 194.473 23.328L193.441 22.584C193.441 21.48 193.681 20.512 194.161 19.68C194.641 18.848 195.289 18.196 196.105 17.724C196.929 17.252 197.841 17.016 198.841 17.016C199.889 17.016 200.749 17.228 201.421 17.652C202.101 18.068 202.605 18.652 202.933 19.404C203.269 20.148 203.437 21.02 203.437 22.02C203.437 22.428 203.437 22.884 203.437 23.388C203.437 23.892 203.437 24.408 203.437 24.936V30H199.729ZM190.753 30V17.256H194.473V30H190.753ZM208.274 30.36C207.722 30.36 207.254 30.168 206.87 29.784C206.486 29.4 206.294 28.932 206.294 28.38C206.294 27.836 206.486 27.372 206.87 26.988C207.254 26.604 207.722 26.412 208.274 26.412C208.818 26.412 209.282 26.604 209.666 26.988C210.05 27.372 210.242 27.836 210.242 28.38C210.242 28.932 210.05 29.4 209.666 29.784C209.282 30.168 208.818 30.36 208.274 30.36Z" fill="white"/>
<path d="M23.6562 8.63718C23.6562 5.66377 27.2723 4.19831 29.3424 6.33279L41.1081 18.4647C42.3643 19.76 43.0668 21.4935 43.0668 23.2979V36.8326C43.0668 39.806 39.4508 41.2715 37.3807 39.137L25.615 27.0051C24.3588 25.7098 23.6562 23.9763 23.6562 22.1719V8.63718Z" fill="#2563EA"/>
<path d="M11.625 8.16745C11.625 5.19404 15.241 3.72858 17.3111 5.86307L28.7954 17.7047C30.2321 19.1862 31.0356 21.1688 31.0356 23.2325V36.3629C31.0356 39.3363 27.4195 40.8018 25.3495 38.6673L13.5837 26.5354C12.3275 25.2401 11.625 23.5066 11.625 21.7022V8.16745Z" fill="#3B81F5"/>
<path d="M0 8.63706C0 5.66365 3.61605 4.19819 5.68611 6.33267L17.4518 18.4646C18.708 19.7599 19.4106 21.4934 19.4106 23.2978V36.8325C19.4106 39.8059 15.7945 41.2714 13.7245 39.1369L1.95873 27.005C0.702531 25.7097 0 23.9762 0 22.1718V8.63706Z" fill="#60A4F9"/>
</svg>
